<svg width="93" height="17" viewBox="0 0 93 17" fill="none" xmlns="http://www.w3.org/2000/svg">
<circle cx="8.66301" cy="8.81822" r="8.0638" fill="#1935CA"/>
<path d="M20.3255 8.12378C20.3255 7.40865 20.4802 6.7726 20.7896 6.21562C21.0991 5.65177 21.5288 5.21513 22.0789 4.9057C22.6359 4.5894 23.2651 4.43124 23.9664 4.43124C24.826 4.43124 25.5617 4.65816 26.1737 5.11199C26.7857 5.56582 27.1948 6.18468 27.4011 6.96857H25.462C25.3176 6.66602 25.1113 6.43566 24.8432 6.27751C24.5819 6.11936 24.2827 6.04028 23.9458 6.04028C23.4026 6.04028 22.9625 6.22938 22.6256 6.60757C22.2886 6.98576 22.1202 7.49116 22.1202 8.12378C22.1202 8.75639 22.2886 9.26179 22.6256 9.63998C22.9625 10.0182 23.4026 10.2073 23.9458 10.2073C24.2827 10.2073 24.5819 10.1282 24.8432 9.97004C25.1113 9.81189 25.3176 9.58154 25.462 9.27898H27.4011C27.1948 10.0629 26.7857 10.6817 26.1737 11.1356C25.5617 11.5825 24.826 11.806 23.9664 11.806C23.2651 11.806 22.6359 11.6513 22.0789 11.3419C21.5288 11.0255 21.0991 10.5889 20.7896 10.0319C20.4802 9.47496 20.3255 8.8389 20.3255 8.12378ZM34.5667 5.99902L30.9567 14.4877H29.0588L30.3791 11.5585L28.0377 5.99902H30.0077L31.3383 9.59873L32.6585 5.99902H34.5667ZM37.1745 6.81386C37.3396 6.54568 37.5768 6.32908 37.8862 6.16405C38.1956 5.99902 38.5498 5.91651 38.9486 5.91651C39.423 5.91651 39.8528 6.03684 40.2379 6.27751C40.623 6.51818 40.9255 6.86199 41.1455 7.30894C41.3725 7.7559 41.4859 8.27505 41.4859 8.86641C41.4859 9.45776 41.3725 9.98036 41.1455 10.4342C40.9255 10.8811 40.623 11.2284 40.2379 11.4759C39.8528 11.7166 39.423 11.8369 38.9486 11.8369C38.5429 11.8369 38.1888 11.7579 37.8862 11.5997C37.5837 11.4347 37.3464 11.2181 37.1745 10.9499V11.7544H35.4108V4.12181H37.1745V6.81386ZM39.6912 8.86641C39.6912 8.42633 39.5674 8.08252 39.3199 7.83498C39.0792 7.58055 38.7801 7.45334 38.4226 7.45334C38.0719 7.45334 37.7728 7.58055 37.5252 7.83498C37.2845 8.0894 37.1642 8.43664 37.1642 8.87672C37.1642 9.3168 37.2845 9.66405 37.5252 9.91847C37.7728 10.1729 38.0719 10.3001 38.4226 10.3001C38.7732 10.3001 39.0724 10.1729 39.3199 9.91847C39.5674 9.65718 39.6912 9.30649 39.6912 8.86641ZM48.0429 8.78389C48.0429 8.94892 48.0325 9.12083 48.0119 9.29961H44.0203C44.0478 9.65718 44.1612 9.93222 44.3606 10.1248C44.5669 10.3104 44.8179 10.4032 45.1136 10.4032C45.5537 10.4032 45.8597 10.2176 46.0316 9.84627H47.9088C47.8125 10.2245 47.6372 10.5648 47.3827 10.8674C47.1352 11.1699 46.8223 11.4072 46.4441 11.5791C46.0659 11.751 45.6431 11.8369 45.1755 11.8369C44.6116 11.8369 44.1097 11.7166 43.6696 11.4759C43.2295 11.2353 42.8857 10.8915 42.6381 10.4445C42.3906 9.99755 42.2668 9.47496 42.2668 8.87672C42.2668 8.27849 42.3872 7.7559 42.6278 7.30894C42.8754 6.86199 43.2192 6.51818 43.6593 6.27751C44.0993 6.03684 44.6047 5.91651 45.1755 5.91651C45.7324 5.91651 46.2275 6.0334 46.6607 6.2672C47.0939 6.50099 47.4309 6.83448 47.6715 7.26769C47.9191 7.70089 48.0429 8.20629 48.0429 8.78389ZM46.2378 8.31975C46.2378 8.0172 46.1347 7.77653 45.9284 7.59775C45.7221 7.41896 45.4643 7.32957 45.1548 7.32957C44.8592 7.32957 44.6082 7.41553 44.4019 7.58743C44.2025 7.75934 44.0787 8.00344 44.0306 8.31975H46.2378ZM50.9434 6.95826C51.1496 6.64195 51.4075 6.39441 51.7169 6.21562C52.0264 6.02997 52.3702 5.93714 52.7484 5.93714V7.80403H52.2636C51.8235 7.80403 51.4935 7.9003 51.2734 8.09283C51.0534 8.27849 50.9434 8.60855 50.9434 9.08301V11.7544H49.1796V5.99902H50.9434V6.95826ZM56.3866 10.1041L57.6346 5.99902H59.5118L57.4696 11.7544H55.2933L53.251 5.99902H55.1386L56.3866 10.1041ZM65.8859 8.78389C65.8859 8.94892 65.8755 9.12083 65.8549 9.29961H61.8633C61.8908 9.65718 62.0042 9.93222 62.2036 10.1248C62.4099 10.3104 62.6609 10.4032 62.9566 10.4032C63.3967 10.4032 63.7027 10.2176 63.8746 9.84627H65.7518C65.6555 10.2245 65.4802 10.5648 65.2257 10.8674C64.9782 11.1699 64.6653 11.4072 64.2871 11.5791C63.9089 11.751 63.4861 11.8369 63.0185 11.8369C62.4546 11.8369 61.9527 11.7166 61.5126 11.4759C61.0725 11.2353 60.7287 10.8915 60.4811 10.4445C60.2336 9.99755 60.1098 9.47496 60.1098 8.87672C60.1098 8.27849 60.2302 7.7559 60.4708 7.30894C60.7184 6.86199 61.0622 6.51818 61.5023 6.27751C61.9423 6.03684 62.4477 5.91651 63.0185 5.91651C63.5755 5.91651 64.0705 6.0334 64.5037 6.2672C64.9369 6.50099 65.2739 6.83448 65.5145 7.26769C65.7621 7.70089 65.8859 8.20629 65.8859 8.78389ZM64.0809 8.31975C64.0809 8.0172 63.9777 7.77653 63.7714 7.59775C63.5651 7.41896 63.3073 7.32957 62.9978 7.32957C62.7022 7.32957 62.4512 7.41553 62.2449 7.58743C62.0455 7.75934 61.9217 8.00344 61.8736 8.31975H64.0809ZM68.7864 6.95826C68.9927 6.64195 69.2505 6.39441 69.5599 6.21562C69.8694 6.02997 70.2132 5.93714 70.5914 5.93714V7.80403H70.1066C69.6665 7.80403 69.3365 7.9003 69.1164 8.09283C68.8964 8.27849 68.7864 8.60855 68.7864 9.08301V11.7544H67.0226V5.99902H68.7864V6.95826ZM71.29 8.86641C71.29 8.27505 71.4 7.7559 71.6201 7.30894C71.847 6.86199 72.153 6.51818 72.538 6.27751C72.9231 6.03684 73.3529 5.91651 73.8273 5.91651C74.2055 5.91651 74.5493 5.99558 74.8588 6.15374C75.1751 6.31189 75.4226 6.52505 75.6014 6.79323V4.12181H77.3652V11.7544H75.6014V10.9293C75.4364 11.2043 75.1991 11.4244 74.8897 11.5894C74.5872 11.7544 74.233 11.8369 73.8273 11.8369C73.3529 11.8369 72.9231 11.7166 72.538 11.4759C72.153 11.2284 71.847 10.8811 71.6201 10.4342C71.4 9.98036 71.29 9.45776 71.29 8.86641ZM75.6014 8.87672C75.6014 8.43664 75.4776 8.0894 75.2301 7.83498C74.9894 7.58055 74.6937 7.45334 74.3431 7.45334C73.9924 7.45334 73.6933 7.58055 73.4457 7.83498C73.205 8.08252 73.0847 8.42633 73.0847 8.86641C73.0847 9.30649 73.205 9.65718 73.4457 9.91847C73.6933 10.1729 73.9924 10.3001 74.3431 10.3001C74.6937 10.3001 74.9894 10.1729 75.2301 9.91847C75.4776 9.66405 75.6014 9.3168 75.6014 8.87672ZM79.7345 5.40079C79.425 5.40079 79.1706 5.3114 78.9712 5.13262C78.7787 4.94696 78.6824 4.72004 78.6824 4.45187C78.6824 4.17682 78.7787 3.94991 78.9712 3.77112C79.1706 3.58547 79.425 3.49264 79.7345 3.49264C80.037 3.49264 80.2846 3.58547 80.4771 3.77112C80.6765 3.94991 80.7762 4.17682 80.7762 4.45187C80.7762 4.72004 80.6765 4.94696 80.4771 5.13262C80.2846 5.3114 80.037 5.40079 79.7345 5.40079ZM80.6112 5.99902V11.7544H78.8474V5.99902H80.6112ZM81.745 8.87672C81.745 8.27849 81.8653 7.7559 82.106 7.30894C82.3535 6.86199 82.6939 6.51818 83.1271 6.27751C83.5672 6.03684 84.0691 5.91651 84.633 5.91651C85.355 5.91651 85.9567 6.1056 86.438 6.4838C86.9262 6.86199 87.2459 7.3949 87.3972 8.08252H85.52C85.3619 7.64244 85.0559 7.4224 84.602 7.4224C84.2789 7.4224 84.021 7.54961 83.8285 7.80403C83.6359 8.05158 83.5397 8.40914 83.5397 8.87672C83.5397 9.34431 83.6359 9.70531 83.8285 9.95973C84.021 10.2073 84.2789 10.331 84.602 10.331C85.0559 10.331 85.3619 10.111 85.52 9.67093H87.3972C87.2459 10.3448 86.9262 10.8743 86.438 11.2593C85.9498 11.6444 85.3481 11.8369 84.633 11.8369C84.0691 11.8369 83.5672 11.7166 83.1271 11.4759C82.6939 11.2353 82.3535 10.8915 82.106 10.4445C81.8653 9.99755 81.745 9.47496 81.745 8.87672ZM91.7547 10.2588V11.7544H90.8574C90.2179 11.7544 89.7193 11.5997 89.3618 11.2903C89.0042 10.974 88.8254 10.4617 88.8254 9.75344V7.46366H88.1241V5.99902H88.8254V4.59627H90.5892V5.99902H91.7444V7.46366H90.5892V9.77407C90.5892 9.94598 90.6304 10.0697 90.713 10.1454C90.7955 10.221 90.933 10.2588 91.1255 10.2588H91.7547Z" fill="#1935CA"/>
<g clip-path="url(#clip0_303_36)">
<path fill-rule="evenodd" clip-rule="evenodd" d="M8.52399 4.47803V4.54965V5.05104H8.73887V6.2007C8.14212 6.23794 7.66447 6.73349 7.66447 7.33777V7.91609H7.37796C7.31777 7.91609 7.26195 7.93493 7.21569 7.96702L6.15668 7.37862C6.15868 7.36693 6.16032 7.35531 6.16032 7.34308C6.16032 7.25042 6.10001 7.17122 6.01706 7.14135V6.34031H6.23194V5.7673H5.65893V5.83893V6.34031H5.87381V7.14135C5.79086 7.17122 5.73056 7.25042 5.73056 7.34308C5.73056 7.46091 5.82761 7.55796 5.94544 7.55796C5.99942 7.55796 6.04852 7.53681 6.08645 7.5034L7.12112 8.07837C7.10273 8.1161 7.09146 8.15803 7.09146 8.2026V9.27699H5.08592V9.06212H4.51291V9.13374V9.63513H5.08592V9.42025H7.09146V9.63513V9.91939L6.08673 10.4779C6.04876 10.4442 5.9996 10.423 5.94544 10.423C5.82761 10.423 5.73056 10.5201 5.73056 10.6379C5.73056 10.7306 5.79086 10.8095 5.87381 10.8393V11.6407H5.65893V11.7123V12.2137H6.23194V11.6407H6.01706V10.8393C6.10001 10.8095 6.16032 10.7306 6.16032 10.6379C6.16032 10.6258 6.15863 10.6142 6.15668 10.6026L7.09146 10.0834V10.6379V10.7811C7.09146 10.9386 7.22048 11.0677 7.37796 11.0677H8.73887V12.5002H8.52399V12.5718V13.0732H9.097V12.5002H8.88212V11.0677H10.243C10.4005 11.0677 10.5295 10.9386 10.5295 10.7811V10.0834L11.4643 10.6026C11.4624 10.6142 11.4607 10.6258 11.4607 10.6379C11.4607 10.7306 11.521 10.8095 11.6039 10.8393V11.6407H11.389V11.7123V12.2137H11.9621V11.6407H11.7472V10.8393C11.8301 10.8095 11.8904 10.7306 11.8904 10.6379C11.8904 10.5201 11.7934 10.423 11.6755 10.423C11.6215 10.423 11.5725 10.4441 11.5345 10.4776L10.5295 9.91967V9.42025H12.5351V9.63513H13.1081V9.06212H12.5351V9.13374V9.27699H10.5295V8.2026C10.5295 8.15803 10.5183 8.1161 10.4999 8.07837L11.5348 7.5034C11.5727 7.53673 11.6216 7.55796 11.6755 7.55796C11.7934 7.55796 11.8904 7.46091 11.8904 7.34308C11.8904 7.25042 11.8301 7.17122 11.7472 7.14135V6.34031H11.9621V5.7673H11.389V5.83893V6.34031H11.6039V7.14135C11.521 7.17122 11.4607 7.25042 11.4607 7.34308C11.4607 7.35531 11.4623 7.36693 11.4643 7.37862L10.4053 7.96702C10.359 7.93493 10.3032 7.91609 10.243 7.91609H8.23664V7.33889C8.23664 7.01949 8.48607 6.77007 8.81021 6.77007C9.13337 6.77007 9.38201 7.01807 9.3835 7.33609V7.34308C9.3835 7.50057 9.51252 7.62959 9.67001 7.62959C9.82749 7.62959 9.95651 7.50057 9.95651 7.34308V7.32182C9.9566 7.31627 9.95603 7.31073 9.95483 7.30531C9.93796 6.71592 9.46805 6.23727 8.88212 6.2007V5.05104H9.097V4.47803H8.52399ZM8.66724 4.62128H8.95374V4.90779H8.66724V4.62128ZM5.80218 5.91055H6.08869V6.19706H5.80218V5.91055ZM11.5323 5.91055H11.8188V6.19706H11.5323V5.91055ZM8.81049 6.34031C9.36288 6.34031 9.81326 6.7877 9.81326 7.33777V7.34308C9.81326 7.42369 9.75061 7.48634 9.67001 7.48634C9.58941 7.48634 9.52676 7.42369 9.52676 7.34308V7.33889H9.52704C9.52704 7.337 9.52677 7.33517 9.52676 7.33329V7.32182C9.52683 7.31675 9.52636 7.31168 9.52536 7.30671C9.50856 6.92668 9.19813 6.62682 8.81021 6.62682C8.41133 6.62682 8.09339 6.94365 8.09339 7.33889V7.91609H7.80772V7.33777C7.80772 6.7877 8.2581 6.34031 8.81049 6.34031ZM5.94544 7.27146C5.98584 7.27146 6.01706 7.30269 6.01706 7.34308C6.01706 7.38349 5.98584 7.41471 5.94544 7.41471C5.90503 7.41471 5.87381 7.38349 5.87381 7.34308C5.87381 7.30269 5.90503 7.27146 5.94544 7.27146ZM11.6755 7.27146C11.716 7.27146 11.7472 7.30269 11.7472 7.34308C11.7472 7.38349 11.716 7.41471 11.6755 7.41471C11.6351 7.41471 11.6039 7.38349 11.6039 7.34308C11.6039 7.30269 11.6351 7.27146 11.6755 7.27146ZM7.37796 8.05935H10.243C10.3236 8.05935 10.3863 8.122 10.3863 8.2026V9.63513H7.23471V8.2026C7.23471 8.122 7.29736 8.05935 7.37796 8.05935ZM8.81049 8.34585C8.61355 8.34585 8.45236 8.50704 8.45236 8.70398C8.45245 8.81425 8.51052 8.91064 8.59561 8.9779V9.49159H9.02537V8.97762C9.11039 8.91045 9.16843 8.81413 9.16862 8.70398C9.16862 8.50704 9.00743 8.34585 8.81049 8.34585ZM8.81049 8.4891C8.93001 8.4891 9.02537 8.58447 9.02537 8.70398C9.02523 8.78074 8.9844 8.85139 8.91793 8.88976L8.88212 8.91047V9.34862H8.73887V8.91075L8.70305 8.89004C8.63652 8.85162 8.59567 8.78081 8.59561 8.70398C8.59561 8.58447 8.69097 8.4891 8.81049 8.4891ZM4.65616 9.20537H4.94267V9.27699V9.42025V9.49187H4.65616V9.20537ZM12.6783 9.20537H12.9648V9.49187H12.6783V9.20537ZM7.23471 9.77838H10.3863V10.4946H7.23471V9.77838ZM7.44959 9.92163V9.99326V10.3514H7.87935V9.92163H7.44959ZM8.0226 9.92163V9.99326V10.3514H8.45236V9.92163H8.0226ZM8.59561 9.92163V9.99326V10.3514H9.02537V9.92163H8.59561ZM9.16862 9.92163V9.99326V10.3514H9.59838V9.92163H9.16862ZM9.74163 9.92163V9.99326V10.3514H10.1714V9.92163H9.74163ZM7.59284 10.0649H7.7361V10.2081H7.59284V10.0649ZM8.16585 10.0649H8.30911V10.2081H8.16585V10.0649ZM8.73887 10.0649H8.88212V10.2081H8.73887V10.0649ZM9.31188 10.0649H9.45513V10.2081H9.31188V10.0649ZM9.88489 10.0649H10.0281V10.2081H9.88489V10.0649ZM5.94544 10.5663C5.98584 10.5663 6.01706 10.5975 6.01706 10.6379C6.01706 10.6783 5.98584 10.7095 5.94544 10.7095C5.90503 10.7095 5.87381 10.6783 5.87381 10.6379C5.87381 10.5975 5.90503 10.5663 5.94544 10.5663ZM11.6755 10.5663C11.716 10.5663 11.7472 10.5975 11.7472 10.6379C11.7472 10.6783 11.716 10.7095 11.6755 10.7095C11.6351 10.7095 11.6039 10.6783 11.6039 10.6379C11.6039 10.5975 11.6351 10.5663 11.6755 10.5663ZM7.23471 10.6379H10.3863V10.7811C10.3863 10.8618 10.3236 10.9244 10.243 10.9244H7.37796C7.29736 10.9244 7.23471 10.8618 7.23471 10.7811V10.6379ZM5.80218 11.7839H6.08869V12.0704H5.80218V11.7839ZM11.5323 11.7839H11.8188V12.0704H11.5323V11.7839ZM8.66724 12.6434H8.95374V12.9299H8.66724V12.6434Z" fill="white"/>
</g>
<defs>
<clipPath id="clip0_303_36">
<rect width="9.97053" height="9.97053" fill="white" transform="translate(3.69351 4.19254)"/>
</clipPath>
</defs>
</svg>
