<svg width="193" height="164" viewBox="0 0 193 164" fill="none" xmlns="http://www.w3.org/2000/svg">
<g clip-path="url(#clip0_1_330)">
<g filter="url(#filter0_d_1_330)">
<rect x="39" y="15.415" width="116.044" height="108.882" rx="54.4408" fill="#1935CA"/>
</g>
<path d="M111.143 64.0566C111.143 61.0769 109.704 58.2193 107.143 56.1124C104.583 54.0054 101.11 52.8218 97.4888 52.8218C93.8675 52.8218 90.3946 54.0054 87.8341 56.1124C85.2735 58.2193 83.835 61.0769 83.835 64.0566C83.835 64.6525 84.1227 65.224 84.6348 65.6454C85.1469 66.0668 85.8415 66.3035 86.5657 66.3035C87.29 66.3035 87.9845 66.0668 88.4967 65.6454C89.0088 65.224 89.2965 64.6525 89.2965 64.0566C89.2965 62.7234 89.7769 61.4201 90.6771 60.3116C91.5773 59.203 92.8568 58.339 94.3537 57.8288C95.8506 57.3186 97.4978 57.1851 99.087 57.4452C100.676 57.7053 102.136 58.3473 103.282 59.2901C104.427 60.2328 105.208 61.4339 105.524 62.7415C105.84 64.0491 105.677 65.4045 105.057 66.6362C104.437 67.8679 103.387 68.9207 102.04 69.6614C100.693 70.4021 99.109 70.7975 97.4888 70.7975C96.7645 70.7975 96.0699 71.0342 95.5578 71.4556C95.0457 71.877 94.758 72.4485 94.758 73.0444V77.5384C94.758 78.1343 95.0457 78.7058 95.5578 79.1272C96.0699 79.5486 96.7645 79.7853 97.4888 79.7853C98.213 79.7853 98.9076 79.5486 99.4197 79.1272C99.9318 78.7058 100.22 78.1343 100.22 77.5384V75.0667C103.304 74.5487 106.075 73.1699 108.066 71.1635C110.056 69.1572 111.143 66.6466 111.143 64.0566Z" fill="white"/>
<path d="M97.4891 88.7727C98.9972 88.7727 100.22 87.7667 100.22 86.5258C100.22 85.2848 98.9972 84.2788 97.4891 84.2788C95.9809 84.2788 94.7583 85.2848 94.7583 86.5258C94.7583 87.7667 95.9809 88.7727 97.4891 88.7727Z" fill="white"/>
</g>
<defs>
<filter id="filter0_d_1_330" x="9" y="-4.58496" width="176.044" height="168.882" filterUnits="userSpaceOnUse" color-interpolation-filters="sRGB">
<feFlood flood-opacity="0" result="BackgroundImageFix"/>
<feColorMatrix in="SourceAlpha" type="matrix" values="0 0 0 0 0 0 0 0 0 0 0 0 0 0 0 0 0 0 127 0" result="hardAlpha"/>
<feOffset dy="10"/>
<feGaussianBlur stdDeviation="15"/>
<feColorMatrix type="matrix" values="0 0 0 0 0 0 0 0 0 0 0 0 0 0 0 0 0 0 0.25 0"/>
<feBlend mode="normal" in2="BackgroundImageFix" result="effect1_dropShadow_1_330"/>
<feBlend mode="normal" in="SourceGraphic" in2="effect1_dropShadow_1_330" result="shape"/>
</filter>
<clipPath id="clip0_1_330">
<rect width="193" height="164" fill="white"/>
</clipPath>
</defs>
</svg>
